<svg width="28" height="28" viewBox="0 0 28 28" fill="none" xmlns="http://www.w3.org/2000/svg">
<path d="M26.8923 10.9189H25.7986V10.8626H13.5782V16.2938H21.2519C20.1324 19.4555 17.1241 21.7251 13.5782 21.7251C9.07906 21.7251 5.43128 18.0773 5.43128 13.5782C5.43128 9.07906 9.07906 5.43128 13.5782 5.43128C15.655 5.43128 17.5444 6.21474 18.983 7.49448L22.8236 3.65389C20.3985 1.3938 17.1547 0 13.5782 0C6.07963 0 0 6.07963 0 13.5782C0 21.0767 6.07963 27.1564 13.5782 27.1564C21.0767 27.1564 27.1564 21.0767 27.1564 13.5782C27.1564 12.6678 27.0627 11.7791 26.8923 10.9189Z" fill="#FFC107"/>
<path d="M1.56592 7.25846L6.02703 10.5301C7.23413 7.54157 10.1575 5.43152 13.5785 5.43152C15.6553 5.43152 17.5447 6.21498 18.9833 7.49472L22.8239 3.65413C20.3989 1.39404 17.155 0.000244141 13.5785 0.000244141C8.36316 0.000244141 3.84026 2.94467 1.56592 7.25846Z" fill="#FF3D00"/>
<path d="M13.5787 27.1565C17.0859 27.1565 20.2728 25.8143 22.6822 23.6316L18.4797 20.0754C17.0707 21.147 15.3489 21.7266 13.5787 21.7252C10.047 21.7252 7.04827 19.4732 5.91857 16.3306L1.49072 19.7421C3.73791 24.1394 8.30154 27.1565 13.5787 27.1565Z" fill="#4CAF50"/>
<path d="M26.8922 10.9199H25.7985V10.8635H13.5781V16.2948H21.2518C20.7163 17.7995 19.7517 19.1144 18.4771 20.077L18.4792 20.0756L22.6816 23.6318C22.3843 23.902 27.1563 20.3683 27.1563 13.5792C27.1563 12.6687 27.0626 11.7801 26.8922 10.9199Z" fill="#1976D2"/>
</svg>
